PathFileType	4	(X/Y/Z)	3_coords_data.trc
DataRate	CameraRate	NumFrames	NumMarkers	Units	OrigDataRate	OrigDataStartFrame	OrigNumFrames
30.0	30.0	7	21	m	30.0	1	81
Frame#	Time	THUMB_TIP	THUMB_IP	THUMB_MCP	THUMB_CMC	INDEX_TIP	INDEX_DIP	INDEX_PIP	INDEX_MCP	MIDDLE_TIP	MIDDLE_DIP	MIDDLE_PIP	MIDDLE_MCP	RING_TIP	RING_DIP	RING_PIP	RING_MCP	PINKY_TIP	PINKY_DIP	PINKY_PIP	PINKY_MCP	WRIST
X1	Y1	Z1	X2	Y2	Z2	X3	Y3	Z3	X4	Y4	Z4	X5	Y5	Z5	X6	Y6	Z6	X7	Y7	Z7	X8	Y8	Z8	X9	Y9	Z9	X10	Y10	Z10	X11	Y11	Z11	X12	Y12	Z12	X13	Y13	Z13	X14	Y14	Z14	X15	Y15	Z15	X16	Y16	Z16	X17	Y17	Z17	X18	Y18	Z18	X19	Y19	Z19	X20	Y20	Z20	X21	Y21	Z21
0	0.0	-0.16707000732421876	-0.11962300109863282	0.9295170288085938	-0.16629800415039062	-0.09853240203857422	0.9479849853515625	-0.1682010040283203	-0.07998149871826171	0.9701630249023437	-0.1659459991455078	-0.05085950088500977	0.9995599975585937	-0.15633700561523436	-0.05156430053710938	0.976385986328125	-0.13863299560546874	-0.04602939987182617	0.964531005859375	-0.13661599731445312	-0.046695499420166015	0.9372869873046875	-0.17383399963378907	-0.05368410110473633	0.9402880249023438	-0.15714199829101563	-0.03529949951171875	0.9819949951171875	-0.13965699768066406	-0.02825309944152832	0.9713880004882812	-0.13777099609375	-0.02511910057067871	0.942572021484375	-0.1827169952392578	-0.03178160095214844	0.939219970703125	-0.16184500122070314	-0.021617799758911132	0.9846859741210937	-0.1471730041503906	-0.012351099967956542	0.9746129760742187	-0.14433200073242186	-0.005317059993743897	0.9486370239257812	-0.19065899658203125	-0.012516300201416015	0.9477919921875	-0.1664949951171875	-0.009159040451049805	0.9834169921875	-0.1532449951171875	0.001553130030632019	0.9757360229492188	-0.15473100280761717	0.010177200317382812	0.9580919799804688	-0.18954600524902343	0.004476270198822021	0.9551270141601562	-0.17892399597167968	-0.02450160026550293	1.0219199829101562
1	0.03333333333333333	-0.16721299743652343	-0.12067600250244141	0.9312150268554688	-0.16606900024414062	-0.0971884994506836	0.9490349731445312	-0.16748199462890626	-0.07832219696044922	0.9732860107421875	-0.16724200439453124	-0.04821960067749023	0.997406005859375	-0.1572969970703125	-0.051229198455810546	0.9753389892578125	-0.13956199645996092	-0.046911701202392575	0.96281298828125	-0.13674000549316406	-0.04672219848632812	0.9385709838867188	-0.17616000366210938	-0.054976600646972656	0.941218017578125	-0.15328700256347655	-0.03505490112304688	0.9781129760742188	-0.14151400756835938	-0.029240400314331054	0.9697839965820313	-0.1382270050048828	-0.02549519920349121	0.9424849853515626	-0.17997099304199218	-0.032257400512695315	0.939697998046875	-0.16273599243164064	-0.021809900283813476	0.9834089965820313	-0.1478679962158203	-0.013252499580383301	0.9741790161132813	-0.14512699890136718	-0.005956140041351319	0.9496619873046875	-0.18477299499511718	-0.012124199867248536	0.9476099853515625	-0.16729800415039062	-0.008452179908752442	0.9835650024414062	-0.1540260009765625	0.0009289000034332271	0.9757429809570313	-0.15574099731445312	0.009298569679260254	0.9588319702148438	-0.18725	0.00576846981048584	0.9566539916992187	-0.18536599731445313	-0.025732900619506834	1.020989990234375
2	0.06666666666666667	-0.16764599609375	-0.12078800201416015	0.93127099609375	-0.16601600646972656	-0.09770159912109375	0.949051025390625	-0.16752799987792968	-0.07824739837646484	0.973364990234375	-0.16719700622558595	-0.048335899353027345	0.9973679809570313	-0.15624600219726562	-0.05125120162963867	0.9756190185546875	-0.139281005859375	-0.047685901641845704	0.9632960205078125	-0.13671800231933592	-0.04716889953613281	0.9388670043945313	-0.17588499450683595	-0.055028999328613284	0.9410499877929688	-0.1533280029296875	-0.03524810028076172	0.978031005859375	-0.14157899475097657	-0.0295890998840332	0.9696840209960937	-0.13831399536132813	-0.025798200607299804	0.9423410034179688	-0.18031500244140625	-0.03243629837036133	0.9398170166015625	-0.16233200073242188	-0.022302000045776368	0.98335400390625	-0.14851499938964843	-0.01322599983215332	0.97397900390625	-0.14513600158691406	-0.006219669818878174	0.9495079956054687	-0.1846219940185547	-0.01220359992980957	0.9474509887695313	-0.16613600158691405	-0.008456760406494141	0.9839929809570312	-0.15376699829101562	0.0008074679970741271	0.9756279907226563	-0.15548699951171874	0.009113340377807618	0.958593994140625	-0.18726199340820313	0.00561113977432251	0.9565230102539063	-0.18514999389648437	-0.02563369941711426	1.021239990234375
3	0.1	-0.1676999969482422	-0.12080500030517578	0.931218994140625	-0.16618099975585937	-0.0977426986694336	0.948989990234375	-0.1676719970703125	-0.0778479995727539	0.973530029296875	-0.16729100036621095	-0.04840019989013672	0.9972760009765625	-0.15435499572753905	-0.05116279983520508	0.9745969848632813	-0.13969400024414064	-0.04738130187988281	0.96285400390625	-0.13691299438476562	-0.04723989868164063	0.9384190063476563	-0.17591299438476563	-0.055128700256347654	0.9409669799804687	-0.15240299987792968	-0.034970901489257813	0.976458984375	-0.1414980010986328	-0.029609500885009767	0.9697020263671875	-0.13831199645996095	-0.025896400451660157	0.9422039794921875	-0.18011399841308592	-0.032496700286865236	0.9396129760742188	-0.16230799865722656	-0.02227280044555664	0.983155029296875	-0.14828799438476561	-0.013246199607849122	0.9737830200195312	-0.14514500427246094	-0.006274670124053955	0.9493920288085937	-0.1848489990234375	-0.012374300003051758	0.94747802734375	-0.16630599975585938	-0.008470270156860351	0.9835349731445312	-0.15395700073242188	0.0007522900104522701	0.97539501953125	-0.1550800018310547	0.008952540397644043	0.95843798828125	-0.18736000061035157	0.0055563697814941405	0.95652197265625	-0.1854029998779297	-0.025722600936889647	1.021280029296875
4	0.13333333333333333	-0.16771499633789064	-0.12061499786376953	0.9309340209960938	-0.16628799438476563	-0.09756269836425781	0.94872802734375	-0.167802001953125	-0.07837079620361329	0.9731500244140625	-0.16732200622558593	-0.04824929809570312	0.9972559814453125	-0.15644400024414062	-0.05121480178833008	0.9749180297851563	-0.13982699584960936	-0.047382400512695315	0.9626380004882813	-0.13699400329589845	-0.047353900909423825	0.9383200073242187	-0.17596299743652344	-0.0550635986328125	0.9409320068359375	-0.1515	-0.03473889923095703	0.976156005859375	-0.14154800415039062	-0.029470399856567384	0.9697479858398438	-0.1382689971923828	-0.025884700775146485	0.9419249877929687	-0.18019200134277344	-0.032449600219726565	0.9394970092773437	-0.16298399353027343	-0.021942399978637697	0.983218994140625	-0.14883099365234376	-0.013363499641418457	0.9737630004882812	-0.14519200134277344	-0.006271259784698486	0.9493209838867187	-0.18481500244140625	-0.012316699981689452	0.9474190063476563	-0.1674620056152344	-0.00853065013885498	0.9830150146484375	-0.1538699951171875	0.0007824910283088681	0.9752979736328125	-0.15555499267578124	0.008981599807739257	0.958291015625	-0.1868000030517578	0.005651500225067139	0.95647802734375	-0.18517999267578125	-0.025830400466918944	1.0208900146484374
5	0.16666666666666666	-0.16785800170898438	-0.1202979965209961	0.9306729736328125	-0.16637100219726564	-0.09727210235595703	0.9486220092773437	-0.1678560028076172	-0.0782844009399414	0.973094970703125	-0.16726300048828124	-0.048200000762939454	0.9972130126953125	-0.15435400390625	-0.051045799255371095	0.9748460083007813	-0.13983599853515624	-0.04728900146484375	0.9626179809570312	-0.13704600524902344	-0.047323299407958985	0.938322998046875	-0.17700599670410155	-0.055107601165771486	0.941083984375	-0.15227000427246093	-0.03480139923095703	0.9762000122070312	-0.14183099365234375	-0.029268999099731446	0.9690180053710937	-0.1383710021972656	-0.025839599609375	0.9419730224609375	-0.1803730010986328	-0.0322849006652832	0.939677978515625	-0.16202000427246094	-0.02187120056152344	0.9832650146484375	-0.14819000244140626	-0.013245699882507324	0.9736890258789063	-0.14521299743652344	-0.006221139907836914	0.9491840209960938	-0.18478799438476562	-0.012191499710083008	0.9473369750976562	-0.1637239990234375	-0.00825605010986328	0.9844199829101562	-0.1537830047607422	0.000801262974739074	0.9751749877929687	-0.15554600524902343	0.00913418960571289	0.9583579711914062	-0.18739300537109374	0.005708889961242676	0.9563909912109375	-0.18571800231933594	-0.025647699356079103	1.0212000122070313
6	0.2	-0.16788299560546874	-0.11988300323486328	0.9304359741210938	-0.16655599975585939	-0.09676830291748047	0.9485910034179688	-0.16796000671386718	-0.07768109893798827	0.9731740112304688	-0.16733099365234375	-0.04819029998779297	0.99722900390625	-0.15283299255371094	-0.050734298706054684	0.9756510009765625	-0.139781005859375	-0.04710940170288086	0.9626649780273437	-0.13689300537109375	-0.0469646987915039	0.9384819946289062	-0.1770030059814453	-0.05486149978637695	0.9410050048828125	-0.153572998046875	-0.0350374984741211	0.9779390258789062	-0.14182400512695312	-0.029210399627685547	0.969197998046875	-0.1382519989013672	-0.02554669952392578	0.942010986328125	-0.1805070037841797	-0.03210419845581055	0.9396749877929688	-0.16316799926757813	-0.021996099472045897	0.9830230102539063	-0.14844599914550782	-0.012919599533081055	0.9736530151367188	-0.14383099365234375	-0.006160540103912353	0.9497949829101563	-0.18489700317382812	-0.011993399620056152	0.9472990112304688	-0.16763800048828126	-0.008252360343933106	0.9829149780273437	-0.1537830047607422	0.000980193018913269	0.975291015625	-0.15571200561523438	0.009238309860229492	0.9583209838867187	-0.18726100158691406	0.005909309864044189	0.9563400268554687	-0.1852279968261719	-0.025477199554443358	1.0208599853515625
